<?xml version="1.0" encoding="utf-8"?>
<!-- Generator: Adobe Illustrator 16.0.0, SVG Export Plug-In . SVG Version: 6.00 Build 0)  -->
<!DOCTYPE svg PUBLIC "-//W3C//DTD SVG 1.1//EN" "http://www.w3.org/Graphics/SVG/1.1/DTD/svg11.dtd">
<svg version="1.1" id="Layer_1" xmlns="http://www.w3.org/2000/svg" xmlns:xlink="http://www.w3.org/1999/xlink" x="0px" y="0px"
	 width="300px" height="300px" viewBox="0 0 300 300" enable-background="new 0 0 300 300" xml:space="preserve">
<g>
	<path fill="#FFFFFF" d="M141.4,186.349H55.336v1.035c0,7.088,3.137,23.574,32.193,23.574h30.438"/>
	<path fill="#FFFFFF" d="M163.625,114.793c-3.502,0-6.348-2.84-6.348-6.346c0-3.507,2.846-6.35,6.348-6.35
		c3.506,0,6.35,2.843,6.35,6.35C169.975,111.954,167.131,114.793,163.625,114.793 M126.992,94.81c-3.502,0-6.349-2.839-6.349-6.345
		s2.847-6.348,6.349-6.348c3.506,0,6.348,2.842,6.348,6.348S130.498,94.81,126.992,94.81 M90.358,114.793
		c-3.502,0-6.348-2.84-6.348-6.346c0-3.507,2.846-6.35,6.348-6.35c3.507,0,6.349,2.843,6.349,6.35
		C96.707,111.954,93.865,114.793,90.358,114.793 M178.92,94.042c-13.684-13.872-31.786-21.51-50.979-21.51
		c-19.188,0-37.29,7.638-50.974,21.51c-13.503,13.687-20.994,31.668-21.12,50.678h144.189
		C199.91,125.709,192.42,107.728,178.92,94.042"/>
	<path fill="#6DC3E8" d="M163.625,114.793c-3.502,0-6.348-2.841-6.348-6.347s2.846-6.348,6.348-6.348c3.506,0,6.35,2.842,6.35,6.348
		S167.131,114.793,163.625,114.793 M178.92,94.041c-13.684-13.871-31.787-21.51-50.979-21.51c-6.518,0-12.889,0.949-19.025,2.657
		c5.848,1.627,11.449,4.002,16.719,7.082c0.438-0.096,0.891-0.153,1.357-0.153c3.141,0,5.73,2.286,6.24,5.282
		c2.654,2.041,5.232,4.209,7.632,6.642c13.5,13.688,20.991,31.669,21.117,50.679h38.055
		C199.91,125.709,192.42,107.728,178.92,94.041"/>

		<path fill="none" stroke="#00587C" stroke-width="11.833" stroke-linecap="round" stroke-linejoin="round" stroke-miterlimit="10" d="
		M56.596,145.146c0-39.096,31.943-71.859,71.342-71.859c39.401,0,71.343,32.764,71.343,71.859H56.596z M141.9,185.071H56.094v1.498
		c0,6.433,2.832,23.634,32.123,23.634"/>
	<path fill="#00587C" d="M96.707,108.448c0,3.506-2.843,6.345-6.348,6.345c-3.504,0-6.35-2.839-6.35-6.345
		c0-3.507,2.846-6.35,6.35-6.35C93.864,102.098,96.707,104.941,96.707,108.448"/>
	<path fill="#00587C" d="M169.974,108.448c0,3.506-2.842,6.345-6.348,6.345c-3.503,0-6.349-2.839-6.349-6.345
		c0-3.507,2.846-6.35,6.349-6.35C167.132,102.098,169.974,104.941,169.974,108.448"/>
	<path fill="#00587C" d="M133.34,88.465c0,3.507-2.842,6.346-6.348,6.346c-3.502,0-6.349-2.839-6.349-6.346
		c0-3.506,2.847-6.349,6.349-6.349C130.498,82.117,133.34,84.959,133.34,88.465"/>
</g>
<polyline fill="none" stroke="#00587C" stroke-width="11.833" stroke-linecap="round" stroke-linejoin="round" stroke-miterlimit="10" points="
	160.754,165.228 124.896,165.228 93.51,172.4 88.876,165.228 51.876,165.228 "/>
<g>
	<path fill="#FFFFFF" d="M273.874,237.359l-170.566,0.292c-1.817,0.005-3.462-1.078-4.182-2.754
		c-0.718-1.672-0.373-3.613,0.876-4.937l117.441-123.997c1.641-1.731,4.336-1.896,6.178-0.383l2.568,2.114
		c15.053,12.527,29.291,32.765,39.067,55.52l0.001,0.003c9.92,23.124,14.668,46.764,13.367,66.568l-0.219,3.32
		C278.246,235.498,276.267,237.357,273.874,237.359"/>
	<path fill="#FFFFFF" d="M253.025,225.702l-0.01-3.062c-0.058-14.061-3.77-30.371-10.449-45.916
		c-6.697-15.594-15.979-29.519-26.135-39.21l-2.23-2.142l6.554-6.859l2.222,2.133c11.051,10.546,21.1,25.58,28.295,42.322
		c7.172,16.693,11.155,34.321,11.221,49.638l0.009,3.067L253.025,225.702z"/>
	<path fill="#6DC3E8" d="M202.764,122.041c0,0,52.15,23.403,52.48,114.463c7.965,0,23.817,0.364,23.817,0.364
		s0.416-44.596-17.243-79.643c-17.66-35.047-41.459-52.348-41.459-52.348L202.764,122.041z"/>

		<path fill="none" stroke="#00587C" stroke-width="11.833" stroke-linecap="round" stroke-linejoin="round" stroke-miterlimit="10" d="
		M253.569,221.809l-0.021-2.979c-0.118-14.274-3.938-30.79-10.788-46.484c-6.869-15.736-16.392-29.79-26.792-39.591l-2.184-2.069
		 M157.748,176.646c4.67,5.8,12.815,8.014,19.981,4.903c8.595-3.729,12.526-13.685,8.789-22.248
		c-1.339-3.067-3.487-5.555-6.078-7.284 M200.168,205.385c3.043,6.971,11.138,10.141,18.119,7.11
		c6.961-3.022,10.16-11.092,7.117-18.064c-3.031-6.942-11.135-10.112-18.096-7.091C200.326,190.371,197.138,198.441,200.168,205.385
		z M171.98,231.702c1.055-3.668,0.891-7.692-0.762-11.479c-3.736-8.559-13.725-12.468-22.307-8.743
		c-7.662,3.326-11.604,11.603-9.748,19.421 M272.082,235.123l-166.901,0.942c-1.779,0.124-3.392-0.924-4.103-2.552
		c-0.709-1.625-0.379-3.517,0.838-4.81l114.439-121.188c1.598-1.691,4.234-1.863,6.044-0.396l2.522,2.049
		c14.775,12.139,28.787,31.789,38.44,53.908l0.001,0.003c9.797,22.477,14.534,45.476,13.338,64.764l-0.201,3.235
		C276.354,233.407,274.422,235.224,272.082,235.123z"/>
</g>
</svg>
