<?xml version="1.0" encoding="utf-8"?>
<!-- Generator: Adobe Illustrator 16.0.0, SVG Export Plug-In . SVG Version: 6.00 Build 0)  -->
<!DOCTYPE svg PUBLIC "-//W3C//DTD SVG 1.1//EN" "http://www.w3.org/Graphics/SVG/1.1/DTD/svg11.dtd">
<svg version="1.1" id="Layer_1" xmlns="http://www.w3.org/2000/svg" xmlns:xlink="http://www.w3.org/1999/xlink" x="0px" y="0px"
	 width="300px" height="300px" viewBox="0 0 300 300" enable-background="new 0 0 300 300" xml:space="preserve">
<g>
	<polyline fill="#FFFFFF" points="148.017,236.132 91.545,236.132 91.545,106.254 185.752,106.254 185.752,173.909 	"/>
	<polygon fill="#FFFFFF" points="274.403,236.132 143.179,236.132 127.979,200.42 289.603,200.42 	"/>
	<g>
		<path fill="#FFFFFF" d="M285.431,145.752c-2.107-0.894-4.445-0.904-6.574-0.041c-2.139,0.865-3.805,2.501-4.694,4.609
			l-21.009,49.626h18.671l18.171-42.925C291.843,152.654,289.795,147.601,285.431,145.752"/>
		<path fill="#FFFFFF" d="M171.069,181.597c-3.752-3.732-8.728-5.789-14.016-5.789c-10.961,0-19.878,8.917-19.878,19.874v4.265
			h115.067l7.892-18.643c-6.122-5.821-16.884-5.507-16.965-5.496c-5.31,0-10.286,2.057-14.032,5.789
			c-0.187,0.187-0.484,0.187-0.669,0c-3.752-3.732-8.731-5.789-14.019-5.789c-5.288,0-10.264,2.057-14.016,5.789
			c-0.186,0.187-0.481,0.187-0.668,0c-3.748-3.732-8.724-5.789-14.015-5.789c-5.288,0-10.265,2.057-14.015,5.789
			C171.551,181.783,171.255,181.783,171.069,181.597"/>
		<path fill="#FFFFFF" d="M184.379,92.697c-2.448-8.669-9.739-15.04-18.403-16.497c-1.236-0.208-2.502-0.315-3.787-0.315
			c-1.401,0-2.805,0.137-4.289,0.416c-0.178,0.025-0.371-0.045-0.475-0.193c-4.338-6.075-11.357-9.703-18.783-9.703
			c-7.425,0-14.445,3.628-18.783,9.703c-0.104,0.152-0.278,0.227-0.475,0.193c-1.484-0.279-2.887-0.416-4.29-0.416
			c-10.267,0-19.392,6.905-22.186,16.794c0.004,0.004-0.847,5.239-0.88,13.099h93.314C186.53,99.469,184.401,92.767,184.379,92.697"
			/>
	</g>
	<polygon fill="#F48572" points="267.345,198.995 252.551,233.757 274.496,233.757 289.291,198.995 	"/>
	<g>
		<path fill="#F48572" d="M284.431,145.752c-2.107-0.895-4.445-0.905-6.574-0.041c-0.348,0.141-0.66,0.332-0.98,0.512
			c3.747,2.119,5.424,6.738,3.706,10.798l-18.171,42.926h8.412l18.172-42.926C290.843,152.654,288.795,147.6,284.431,145.752"/>
		<path fill="#F48572" d="M184.379,92.697c-2.448-8.669-9.739-15.04-18.403-16.497c-1.236-0.208-2.502-0.315-3.787-0.315
			c-1.401,0-2.805,0.137-4.289,0.416c-0.178,0.025-0.371-0.045-0.475-0.193c-4.338-6.074-11.357-9.703-18.783-9.703
			c-6.051,0-11.808,2.441-16.088,6.621c6.411,0.757,12.299,4.202,16.111,9.541c0.104,0.148,0.296,0.219,0.475,0.193
			c1.484-0.278,2.887-0.416,4.289-0.416c1.284,0,2.549,0.107,3.787,0.315c8.662,1.458,15.954,7.828,18.403,16.497
			c0.014,0.045,0.907,2.903,1.213,6.621h18.511C186.53,99.469,184.401,92.767,184.379,92.697"/>
		<path fill="#F48572" d="M167.671,105.572v18.364v49.812c-1.531,0.034-3.019,0.279-4.476,0.63c3.479,0.856,6.709,2.535,9.362,5.062
			c3.771-3.592,8.671-5.574,13.875-5.691v-49.812v-18.364H167.671z"/>
	</g>

		<path fill="none" stroke="#00587C" stroke-width="8.939" stroke-linecap="round" stroke-linejoin="round" stroke-miterlimit="10" d="
		M163.526,127.401v28.8 M137.766,127.401v28.8 M113.771,127.401v28.8"/>
	<g>
		<path fill="none" stroke="#00587C" stroke-width="10" stroke-linecap="round" stroke-linejoin="round" stroke-miterlimit="10" d="
			M243.15,175.332c-5.601,0-10.67,2.267-14.351,5.928c-3.678-3.661-8.748-5.928-14.349-5.928s-10.67,2.267-14.349,5.927
			c-3.68-3.66-8.75-5.927-14.35-5.927c-5.602,0-10.67,2.267-14.351,5.928c-3.681-3.661-8.749-5.928-14.349-5.928
			c-11.24,0-20.352,9.111-20.352,20.352 M252.56,200.42l21.287-50.287c1.945-4.595,7.297-6.763,11.892-4.818
			c4.595,1.945,6.763,7.296,4.817,11.892l-18.293,43.214 M274.403,236.132H143.179l-15.199-35.712h161.623L274.403,236.132z
			 M184.833,92.55c-2.795-9.886-11.863-17.139-22.643-17.139c-1.498,0-2.959,0.154-4.379,0.423
			c-4.27-5.987-11.256-9.904-19.169-9.904c-7.914,0-14.899,3.917-19.169,9.904c-1.42-0.269-2.881-0.423-4.379-0.423
			c-10.78,0-19.848,7.253-22.643,17.139 M126.743,236.132H91.546V106.254h94.207v67.655 M184.833,92.55
			c-2.795-9.886-11.863-17.139-22.643-17.139c-1.498,0-2.959,0.154-4.379,0.423c-4.27-5.987-11.256-9.904-19.169-9.904
			c-7.914,0-14.899,3.917-19.169,9.904c-1.42-0.269-2.881-0.423-4.379-0.423c-10.78,0-19.848,7.253-22.643,17.139 M91.546,126.78
			c-19.291,3.132-34.033,19.818-34.033,39.993s14.742,36.862,34.033,39.993V126.78z M126.743,236.132H91.546V106.254h94.207v18.838"
			/>
	</g>
</g>
</svg>
