<?xml version="1.0" encoding="utf-8"?>
<!-- Generator: Adobe Illustrator 16.0.0, SVG Export Plug-In . SVG Version: 6.00 Build 0)  -->
<!DOCTYPE svg PUBLIC "-//W3C//DTD SVG 1.1//EN" "http://www.w3.org/Graphics/SVG/1.1/DTD/svg11.dtd">
<svg version="1.1" id="Layer_1" xmlns="http://www.w3.org/2000/svg" xmlns:xlink="http://www.w3.org/1999/xlink" x="0px" y="0px"
	 width="300px" height="300px" viewBox="0 0 300 300" enable-background="new 0 0 300 300" xml:space="preserve">
<g>
	<rect x="91.189" y="154.111" fill="#FFFFFF" width="136.425" height="80.539"/>
	<polygon fill="#FFFFFF" points="227.614,234.65 181.114,234.65 204.364,194.38 227.614,154.11 250.864,194.38 274.114,234.65 	"/>
	<g>
		<path fill="#FFFFFF" d="M142.683,41.88c-10.676-2.815-21.614,3.558-24.431,14.233c-0.645,2.45-0.809,4.914-0.545,7.289
			l0.914,1.061c-7.209-0.003-14.535-0.007-14.535-0.007l-31.934-0.016l10.803,25.342c5.91,13.865,4.568,29.757-3.584,42.436l0,0
			c-6.725,10.459-10.304,22.631-10.311,35.067l-0.024,49.308c-0.005,9.969,8.071,18.053,18.039,18.058h4.116l23.25-40.269
			l23.248-40.271l-0.124-0.418c-1.626-7.586-4.604-14.856-8.835-21.449c-8.138-12.687-9.465-28.581-3.539-42.44l5.063-11.845
			l2.23,2.587c10.676,2.815,21.615-3.557,24.431-14.234C159.73,55.634,153.359,44.696,142.683,41.88"/>
		<path fill="#C6B3D7" d="M128.73,132.242L128.73,132.242c-8.138-12.687-9.464-28.58-3.54-42.439l10.831-25.331l-20.531-0.01
			l-10.828,25.331c-5.925,13.859-4.6,29.752,3.541,42.439c6.714,10.467,10.28,22.643,10.273,35.077l-0.025,19.451
			c-0.004,9.968,20.555-31.875,20.555-31.875C139.012,142.448,135.444,142.708,128.73,132.242"/>
		<path fill="none" stroke="#00587C" stroke-width="10" stroke-linecap="round" stroke-linejoin="round" stroke-miterlimit="10" d="
			M117.707,63.402c-0.264-2.376-0.102-4.839,0.545-7.289c2.815-10.676,13.755-17.049,24.431-14.233
			c10.678,2.816,17.05,13.755,14.233,24.432c-2.815,10.677-13.754,17.048-24.431,14.232 M104.086,64.456l31.936,0.016L125.19,89.803
			c-5.924,13.859-4.598,29.753,3.54,42.439c4.23,6.593,7.211,13.864,8.835,21.45 M104.086,64.456l-31.934-0.017l10.803,25.342
			c5.91,13.865,4.568,29.758-3.584,42.436v0.001c-6.725,10.458-10.304,22.63-10.311,35.066l-0.024,49.309
			c-0.005,9.967,8.07,18.051,18.038,18.057l4.115,0.001 M91.189,234.65l23.25-40.27l23.25-40.27"/>
	</g>
	<polygon fill="#C6B3D7" points="250.864,194.38 227.614,154.11 214.182,177.378 223.996,194.38 247.246,234.65 274.114,234.65 	"/>

		<polygon fill="none" stroke="#00587C" stroke-width="10" stroke-linecap="round" stroke-linejoin="round" stroke-miterlimit="10" points="
		227.614,234.65 181.114,234.65 204.364,194.38 227.614,154.11 250.864,194.38 274.114,234.65 	"/>

		<path fill="none" stroke="#00587C" stroke-width="9.37" stroke-linecap="round" stroke-linejoin="round" stroke-miterlimit="10" d="
		M227.614,206.445h24.276 M135.361,234.65l23.25-40.27l23.25-40.27"/>
	<g>
		<path fill="#FFFFFF" d="M277.676,206.445c0,7.179-5.818,12.999-12.998,12.999c-7.178,0-12.998-5.819-12.998-12.999
			c0-7.18,5.82-12.999,12.998-12.999C271.857,193.446,277.676,199.266,277.676,206.445"/>
		<path fill="none" stroke="#00587C" stroke-width="10" stroke-linecap="round" stroke-linejoin="round" stroke-miterlimit="10" d="
			M278.171,206.445H294 M277.676,206.445c0,7.179-5.818,12.999-12.998,12.999c-7.178,0-12.998-5.819-12.998-12.999
			c0-7.18,5.82-12.999,12.998-12.999C271.857,193.446,277.676,199.266,277.676,206.445z M163.469,156.959
			c-4.719-0.254-9.521,2.021-11.991,6.35 M117.744,236.211c-3.327-4.005-3.994-9.815-1.239-14.587 M123.885,216.033
			c-3.034,0.813-5.759,2.783-7.453,5.719c-1.621,2.807-2.006,5.989-1.326,8.917 M150.213,172.121
			c-0.701-2.871-0.352-5.942,1.324-8.917c1.665-2.953,4.42-4.906,7.454-5.718 M132.66,201.396c-0.682-2.928-0.297-6.109,1.326-8.917
			c1.693-2.936,4.418-4.906,7.451-5.719 M150.217,172.124c0.682,2.927,0.295,6.109-1.325,8.917
			c-1.694,2.935-4.419,4.905-7.454,5.719 M132.663,201.397c0.681,2.927,0.296,6.109-1.325,8.917
			c-1.695,2.935-4.418,4.905-7.453,5.719 M207.592,156.959c-4.717-0.254-9.521,2.021-11.99,6.35 M161.869,236.211
			c-3.329-4.005-3.996-9.815-1.24-14.587 M168.008,216.033c-3.035,0.813-5.758,2.783-7.453,5.719
			c-1.621,2.807-2.006,5.989-1.326,8.917 M194.336,172.121c-0.701-2.871-0.352-5.942,1.325-8.917
			c1.664-2.953,4.419-4.906,7.452-5.718 M176.783,201.396c-0.682-2.928-0.295-6.109,1.326-8.917
			c1.693-2.936,4.419-4.906,7.453-5.719 M194.34,172.124c0.682,2.927,0.296,6.109-1.325,8.917c-1.694,2.935-4.419,4.905-7.452,5.719
			 M176.787,201.397c0.682,2.927,0.295,6.109-1.326,8.917c-1.695,2.935-4.418,4.905-7.453,5.719"/>
	</g>
</g>
</svg>
