<?xml version="1.0" encoding="utf-8"?>
<!-- Generator: Adobe Illustrator 16.0.0, SVG Export Plug-In . SVG Version: 6.00 Build 0)  -->
<!DOCTYPE svg PUBLIC "-//W3C//DTD SVG 1.1//EN" "http://www.w3.org/Graphics/SVG/1.1/DTD/svg11.dtd">
<svg version="1.1" id="Layer_1" xmlns="http://www.w3.org/2000/svg" xmlns:xlink="http://www.w3.org/1999/xlink" x="0px" y="0px"
	 width="300px" height="300px" viewBox="0 0 300 300" enable-background="new 0 0 300 300" xml:space="preserve">
<g>
	<path fill="#FFFFFF" d="M261.972,139.971c-1.408,0-2.914,0.129-4.603,0.397c-0.181,0.019-0.349-0.044-0.455-0.186
		c-6.886-9.487-17.959-15.15-29.618-15.15c-11.656,0-22.729,5.663-29.614,15.15c-0.107,0.146-0.272,0.219-0.456,0.186
		c-1.688-0.268-3.195-0.397-4.603-0.397c-16.069,0-29.147,13.078-29.147,29.148c0,16.076,13.078,29.152,29.147,29.152
		c5.715,0,11.261-1.668,16.038-4.822c0.15-0.095,0.338-0.103,0.496-0.016c5.531,3.167,11.803,4.837,18.139,4.837
		c6.335,0,12.61-1.671,18.142-4.837c0.073-0.04,0.153-0.062,0.235-0.062c0.092,0,0.18,0.026,0.26,0.078
		c4.775,3.154,10.32,4.822,16.039,4.822c16.073,0,29.151-13.077,29.151-29.152C291.123,153.049,278.045,139.971,261.972,139.971"/>
	<path fill="#FFFFFF" d="M245.853,194.649c-5.611,3.15-11.955,4.818-18.361,4.818c-6.4,0-12.74-1.668-18.352-4.818
		c-4.879,3.155-10.516,4.818-16.318,4.818c-5.201,0-10.096-1.328-14.367-3.661l3.673,30.601c0.489,4.217,3.765,7.588,7.974,8.198
		l74.656,0.021c4.246-0.533,7.604-3.937,8.105-8.281l1.898-18.605c0.005-0.046,0.044-0.075,0.061-0.118l1.21-11.566
		c-4.153,2.167-8.862,3.411-13.864,3.411C256.364,199.468,250.724,197.804,245.853,194.649"/>
	<path fill="#FFFFFF" d="M210.181,103.417V75.83h-9.85c-0.26,0-0.47-0.209-0.47-0.47c0-6.338-5.156-11.496-11.495-11.496h-69.178
		c-6.338,0-11.495,5.157-11.495,11.496c0,0.26-0.209,0.47-0.47,0.47h-9.846v27.587h7.43h98.932H210.181z"/>
	<path fill="#FFFFFF" d="M182.61,226.884l-1.957-15.269c-0.002-0.018-0.316-3.665-0.316-3.683l-1.487-12.379
		c-2.434-1.458-9.019-6.942-10.944-9.005c-3.586-5.536-6.91-15.901-6.688-18.271c1.063-11.303,0.94-9.895,4.465-16.284
		c5.523-6.699,11.636-12.34,20.976-12.34c1.377,0,2.843,0.121,4.466,0.367c2.014-2.727,4.396-5.101,7.003-7.159l2.369-16.508
		c-0.116-0.103-0.198-0.24-0.169-0.405l1.717-10.449h-97.846l15.173,120.107c0.685,5.259,5.208,9.296,10.53,9.387h32.061h26.514
		C185.296,233.494,183.026,230.477,182.61,226.884"/>
	<path fill="#A2D5B0" d="M261.941,140.229c-1.45,0-2.993,0.133-4.717,0.408c-0.157,0.02-0.31-0.04-0.405-0.167
		c-7.059-9.723-18.408-15.528-30.359-15.528c-10.032,0-19.607,4.134-26.611,11.202c3.078-0.906,6.277-1.435,9.545-1.435
		c10.979,0,21.4,5.371,27.832,14.354c1.665-0.275,3.145-0.41,4.532-0.41c17.976,0,31.944,17.485,25.792,36.339
		c-1.961,6.013-6.129,11.166-11.562,14.345c1.953,0.398,3.936,0.673,5.954,0.673c16.483,0,29.892-13.408,29.892-29.89
		C291.833,153.64,278.425,140.229,261.941,140.229"/>
	<path fill="#A2D5B0" d="M200.052,76.707c-0.26,0-0.47-0.211-0.47-0.47c0-6.451-5.248-11.699-11.698-11.699h-25.033
		c6.45,0,11.697,5.248,11.697,11.699c0,0.259,0.211,0.47,0.471,0.47h10.025v28.074h17.47h7.563V76.707H200.052z"/>
	<path fill="#A2D5B0" d="M176.179,143.964c4.311-2.521,9.307-3.992,14.651-3.992c1.406,0,2.912,0.128,4.601,0.395
		c0.16,0.03,0.294-0.051,0.398-0.163l3.025-23.934h0.816v-6.479l0.516-4.071h-0.516v-0.94h-96.006l1.377,11.49h74.636
		L176.179,143.964z"/>
	<path fill="#A2D5B0" d="M182.127,226.408l-3.673-30.601c3.531,1.928,7.5,3.118,11.703,3.49l0.143-1.144
		c-7.035-0.559-13.377-3.611-18.127-8.293l-4.803,38.021c-0.697,5.349-4.083,7.112-10.713,7.112h19.174
		c4.428,0,7.262,0.251,9.179-2.88C183.45,230.639,182.387,228.65,182.127,226.408"/>
	<path fill="#A2D5B0" d="M262.01,200.279c-1.112,0-2.208-0.117-3.304-0.237c-0.686-0.087-1.375-0.177-2.055-0.3
		c-3.896-0.705-7.637-2.122-11-4.303h-0.002c-5.625,3.167-11.984,4.84-18.408,4.84s-12.782-1.673-18.404-4.84h-0.004
		c-4.885,3.167-10.537,4.84-16.358,4.84c-5.11,0-9.925-1.289-14.146-3.545l1.314,11.985c3.877,1.891,8.21,2.983,12.805,2.983
		c5.752,0,11.334-1.677,16.143-4.854c0.151-0.096,0.341-0.104,0.498-0.015c5.568,3.187,11.883,4.868,18.26,4.868
		c6.375,0,12.693-1.681,18.262-4.868c0.073-0.042,0.154-0.062,0.234-0.062c0.094,0,0.182,0.024,0.264,0.077
		c2.868,1.895,6.029,3.185,9.32,3.976l-1.814,16.479c-0.508,4.378-3.889,7.812-8.17,8.354l19.161,0.005
		c4.293-0.535,7.681-3.973,8.19-8.359l3.368-30.573C271.942,198.989,267.125,200.279,262.01,200.279"/>
	<path fill="none" stroke="#00587C" stroke-width="10" stroke-linecap="round" stroke-linejoin="round" stroke-miterlimit="10" d="
		M273.638,207.659l-1.879,18.454c-0.527,4.524-4.014,8.065-8.498,8.621l-74.087-0.022c-4.394-0.64-7.79-4.118-8.3-8.537
		l-3.18-30.926 M202.146,105.414l-4.872,34.851 M260.69,140.207c-1.58,0-3.119,0.16-4.633,0.401
		c-6.683-9.203-17.499-15.211-29.743-15.211c-12.242,0-23.06,6.008-29.741,15.211c-1.514-0.242-3.055-0.401-4.635-0.401
		c-16.219,0-29.366,13.149-29.366,29.369s13.147,29.366,29.366,29.366c5.973,0,11.521-1.795,16.159-4.858
		c5.374,3.075,11.583,4.858,18.217,4.858c6.636,0,12.845-1.783,18.219-4.858c4.636,3.063,10.185,4.858,16.157,4.858
		c16.221,0,29.367-13.147,29.367-29.366S276.911,140.207,260.69,140.207z M106.46,77.129c0-6.551,5.311-11.863,11.859-11.863h68.589
		c6.55,0,11.862,5.312,11.862,11.863H209v28.285H96.228V77.129H106.46z M168.182,234.733h-38.116
		c-5.605-0.098-10.188-4.296-10.891-9.711l-15.112-119.608h98.084"/>
</g>
</svg>
